<svg xmlns="http://www.w3.org/2000/svg" viewBox="-306 -345.6 612 691.2">
  <path fill="#f72585" d="M-192 -167.4 A10 10 0 0 0 -207 -176.1 L-251 -150.7 A10 10 0 0 0 -256 -142 L-256 48.5 A10 10 0 0 0 -251 57.2 L-77 157.6 A10 10 0 0 0 -67 157.6 L-32 137.4 A10 10 0 0 0 -32 120.1 L-196 25.4 A10 10 0 0 1 -201 16.7 L-201 -110.9 A9 9 0 0 1 -196.5 -118.6 L-196.5 -118.6 A9 9 0 0 0 -192 -126.4 Z"/>
  <path fill="#b4179e" d="M49 -250 A10 10 0 0 0 49 -267.3 L5 -292.7 A10 10 0 0 0 -5 -292.7 L-170 -197.5 A10 10 0 0 0 -175 -188.8 L-175 12.1 A10 10 0 0 0 -170 20.8 L-135 41 A10 10 0 0 0 -120 32.3 L-120 -157 A10 10 0 0 1 -115 -165.7 L-4.5 -229.5 A9 9 0 0 1 4.5 -229.5 L4.5 -229.5 A9 9 0 0 0 13.5 -229.5 Z"/>
  <path fill="#7209b7" d="M241 -82.6 A10 10 0 0 0 256 -91.2 L256 -142 A10 10 0 0 0 251 -150.7 L86 -246 A10 10 0 0 0 76 -246 L-98 -145.5 A10 10 0 0 0 -103 -136.8 L-103 -96.4 A10 10 0 0 0 -88 -87.8 L76 -182.4 A10 10 0 0 1 86 -182.4 L196.5 -118.6 A9 9 0 0 1 201 -110.9 L201 -110.9 A9 9 0 0 0 205.5 -103.1 Z"/>
  <path fill="#5f69d4" d="M192 167.4 A10 10 0 0 0 207 176.1 L251 150.7 A10 10 0 0 0 256 142 L256 -48.5 A10 10 0 0 0 251 -57.2 L77 -157.6 A10 10 0 0 0 67 -157.6 L32 -137.4 A10 10 0 0 0 32 -120.1 L196 -25.4 A10 10 0 0 1 201 -16.7 L201 110.9 A9 9 0 0 1 196.5 118.6 L196.5 118.6 A9 9 0 0 0 192 126.4 Z"/>
  <path fill="#4cc9f0" d="M-49 250 A10 10 0 0 0 -49 267.3 L-5 292.7 A10 10 0 0 0 5 292.7 L170 197.5 A10 10 0 0 0 175 188.8 L175 -12.1 A10 10 0 0 0 170 -20.8 L135 -41 A10 10 0 0 0 120 -32.3 L120 157 A10 10 0 0 1 115 165.7 L4.5 229.5 A9 9 0 0 1 -4.5 229.5 L-4.5 229.5 A9 9 0 0 0 -13.5 229.5 Z"/>
  <path fill="#a277ba" d="M-241 82.6 A10 10 0 0 0 -256 91.2 L-256 142 A10 10 0 0 0 -251 150.7 L-86 246 A10 10 0 0 0 -76 246 L98 145.5 A10 10 0 0 0 103 136.8 L103 96.4 A10 10 0 0 0 88 87.8 L-76 182.4 A10 10 0 0 1 -86 182.4 L-196.5 118.6 A9 9 0 0 1 -201 110.9 L-201 110.9 A9 9 0 0 0 -205.5 103.1 Z"/>
</svg>
